<?xml version="1.0" encoding="UTF-8"?><svg xmlns="http://www.w3.org/2000/svg" viewBox="0 0 624.03 163.28"><defs><style>.d{fill:#080001;}</style></defs><g id="a"/><g id="b"><g id="c"><g><path class="d" d="M235.54,163.28c-22.36,0-43.23-8.87-58.77-24.97l4.62-4.45c14.31,14.84,33.54,23.01,54.15,23.01,41.48,0,75.23-33.75,75.23-75.23S277.02,6.41,235.54,6.41c-20.09,0-38.98,7.83-53.19,22.03l-4.54-4.54C193.23,8.49,213.73,0,235.54,0c45.02,0,81.64,36.62,81.64,81.64s-36.62,81.64-81.64,81.64Z"/><path class="d" d="M178.5,136.64c-1.5-1.55-2.94-3.18-4.3-4.84l1.24-1.02c1.33,1.63,2.75,3.22,4.22,4.74l-1.15,1.11Zm-8.2-10.01c-1.22-1.77-2.39-3.61-3.46-5.47l1.39-.8c1.05,1.82,2.19,3.63,3.39,5.36l-1.32,.91Zm-6.46-11.21c-.92-1.94-1.77-3.95-2.52-5.96l1.5-.56c.74,1.97,1.57,3.94,2.47,5.84l-1.45,.68Zm-4.54-12.12c-.59-2.07-1.09-4.19-1.51-6.3l1.57-.31c.41,2.07,.9,4.14,1.48,6.17l-1.54,.44Zm-2.5-12.7c-.24-2.13-.39-4.3-.46-6.46l1.6-.05c.07,2.12,.22,4.25,.45,6.33l-1.59,.18Zm1.2-12.86l-1.6-.08c.11-2.15,.3-4.32,.58-6.45l1.59,.21c-.27,2.09-.47,4.22-.57,6.33Zm1.66-12.58l-1.57-.34c.46-2.11,1-4.22,1.63-6.27l1.53,.47c-.61,2.01-1.15,4.08-1.59,6.14Zm3.69-12.13l-1.49-.59c.79-1.99,1.68-3.99,2.63-5.92l1.44,.71c-.94,1.9-1.81,3.85-2.58,5.8Zm5.63-11.37l-1.37-.83c1.11-1.84,2.31-3.66,3.56-5.41l1.3,.94c-1.23,1.71-2.41,3.5-3.49,5.3Zm7.41-10.3l-1.22-1.04c1.38-1.62,2.84-3.21,4.35-4.71l1.13,1.13c-1.47,1.47-2.91,3.03-4.26,4.62Z"/></g><path class="d" d="M81.64,163.28C36.62,163.28,0,126.66,0,81.64S36.62,0,81.64,0c21.81,0,42.31,8.49,57.73,23.91l-4.54,4.54c-14.21-14.21-33.1-22.03-53.19-22.03C40.16,6.41,6.41,40.16,6.41,81.64s33.75,75.23,75.23,75.23c20.09,0,38.99-7.83,53.19-22.03l4.54,4.54c-15.42,15.42-35.92,23.91-57.73,23.91Z"/><path class="d" d="M412.41,163.28c-45.02,0-81.64-36.62-81.64-81.64S367.39,0,412.41,0c21.81,0,42.31,8.49,57.73,23.91l-4.54,4.54c-14.21-14.21-33.1-22.03-53.19-22.03-41.48,0-75.23,33.75-75.23,75.23s33.75,75.23,75.23,75.23c20.09,0,38.99-7.83,53.19-22.03l4.54,4.54c-15.42,15.42-35.92,23.91-57.73,23.91Z"/><path class="d" d="M617.23,145.45l-4-5.01c2.18-1.74,4.29-3.63,6.27-5.61l4.54,4.54c-2.14,2.15-4.43,4.19-6.8,6.08Z"/><path class="d" d="M566.3,163.28c-45.02,0-81.64-36.62-81.64-81.64S521.29,0,566.3,0c21.81,0,42.31,8.49,57.73,23.91l-4.54,4.54c-14.21-14.21-33.1-22.03-53.19-22.03-41.48,0-75.23,33.75-75.23,75.23s33.75,75.23,75.23,75.23c14.48,0,28.54-4.12,40.66-11.92l3.47,5.39c-13.16,8.47-28.42,12.94-44.13,12.94Z"/></g></g></svg>